<svg width="20" height="20" viewBox="0 0 20 20" fill="none" xmlns="http://www.w3.org/2000/svg">
<path d="M19.0048 4.34853L10.9859 0.233116C10.3776 -0.0777054 9.6224 -0.0777054 9.01414 0.233116L0.995164 4.34853C0.381324 4.66275 0 5.25212 0 5.88395V14.1148C0 14.7466 0.381324 15.336 0.995164 15.6502L9.01414 19.7656C9.3192 19.9219 9.6596 20 10 20C10.3404 20 10.6808 19.9219 10.9859 19.7656L19.0048 15.6502C19.6187 15.336 20 14.7466 20 14.1148V5.88395C20 5.25212 19.6187 4.66275 19.0048 4.34853ZM10 15.2171C6.84896 15.2171 4.28571 12.8766 4.28571 9.99936C4.28571 7.12214 6.84896 4.78164 10 4.78164C11.8006 4.78164 13.4635 5.54426 14.5443 6.84359L12.4572 7.9459C11.8304 7.31917 10.9394 6.95569 10 6.95569C8.1622 6.95569 6.66667 8.32127 6.66667 9.99936C6.66667 11.6775 8.1622 13.043 10 13.043C10.9394 13.043 11.8304 12.6796 12.4572 12.0528L14.5443 13.1551C13.4635 14.4545 11.8006 15.2171 10 15.2171ZM15.7143 10.4342H14.7619V11.3038H13.8095V10.4342H12.8571V9.56455H13.8095V8.69493H14.7619V9.56455H15.7143V10.4342ZM19.0476 10.4342H18.0952V11.3038H17.1429V10.4342H16.1905V9.56455H17.1429V8.69493H18.0952V9.56455H19.0476V10.4342Z" fill="white"/>
</svg>
