<svg width="20" height="20" viewBox="0 0 20 20" fill="none" xmlns="http://www.w3.org/2000/svg">
<path d="M19.3677 2.84508L20 0.30483L19.9739 0.142254L13.7419 2.70283C14.4068 1.199 14.1786 0 14.1786 0C14.1786 0 12.1904 1.98139 10.6845 1.93059C9.17862 1.87978 8.69622 1.2498 6.38853 2.398C4.08083 3.54619 3.42894 7.06189 2.7575 7.82397C2.09257 8.57588 0 11.0856 0 11.0856L1.89048 10.1407C1.89048 10.1407 1.35593 10.9332 0.254237 13.2398V13.2499C0.430248 13.6361 1.206 15.2313 1.97523 14.8859C2.05997 14.8452 2.15776 14.7741 2.26858 14.6928C2.61408 14.9976 3.07692 15.2923 3.57888 15.3736C3.57888 15.3736 3.2399 14.7639 2.95306 14.0527L3.18774 13.819L3.14863 13.8596L3.87223 14.266L3.794 13.2093H3.80052L4.50456 13.6157L4.41982 12.6504L4.68709 12.4472L5.42373 8.09831L8.47458 4.8468L8.23338 5.80193C7.61408 8.16944 6.45372 8.7283 6.45372 8.7283L5.97132 9.02296C5.60626 9.68343 5.45632 9.84601 5.33246 12.0814C5.62582 11.9595 5.89961 11.9392 6.15385 12.0408C7.45763 12.5895 7.90743 15.0383 7.55541 15.7191C7.47067 15.8816 7.26206 16.1763 6.99479 16.5116H6.46675L6.46023 17.1822L6.40808 17.2534H5.86701L5.8605 17.9037L5.71708 18.0663C5.21512 18.0866 4.56975 17.3956 4.56975 17.3956C4.57627 18.0256 4.90874 18.9909 4.90874 18.9909L4.96741 18.9401L4.91525 19.0011C4.91525 19.0011 6.27119 20.4033 7.12516 19.8851C7.88136 19.4177 9.84355 17.0095 11.5385 15.8715L16.6623 13.758L17.3403 11.0348L13.4355 12.6403V10.1813L18.0183 8.30153L18.6962 5.56823L13.4355 7.73252V5.28372L19.3677 2.84508ZM10.0652 8.03735L11.2842 7.53946L11.2973 7.63091L10.9192 9.16522L9.66102 9.68343L10.0652 8.03735ZM10.4824 11.3194L9.22425 11.8376L9.63494 10.1915L10.8475 9.69359L10.867 9.78504L10.4824 11.3194ZM12.1252 10.7707L10.867 11.2889L11.2777 9.64279L12.4902 9.1449L12.5098 9.23635L12.1252 10.7707Z" fill="#222A33"/>
</svg>
