<svg width="20" height="20" viewBox="0 0 20 20" fill="none" xmlns="http://www.w3.org/2000/svg">
<path d="M2.48395 0.00324461C2.08875 0.0404502 1.74374 0.39662 2.23673 0.992977C3.18367 1.59253 1.30282 2.03373 1.85195 2.43486C2.02707 2.85732 1.83793 3.32801 1.32591 3.40376C0.575972 3.4763 0.647052 4.62429 1.37796 4.0226C2.19357 3.73242 1.51895 4.13733 1.13446 4.22054C0.271263 4.50219 -0.316935 5.46878 0.184613 6.35211C0.664272 7.5683 0.792083 8.92493 1.1642 10.1902C1.77995 12.1361 2.67961 13.9877 3.8483 15.5868C4.40315 16.4936 5.21431 17.138 5.97663 17.8101C6.72657 18.3552 7.56169 18.9006 8.41537 19.179C9.93143 19.801 11.5584 19.8592 13.1516 20C14.1223 19.9979 15.0967 19.9212 16.055 19.7291C16.9173 19.8337 17.5377 19.0073 18.3172 19.4437C18.7892 18.9743 19.4772 19.1787 19.9492 18.8373C20.2985 17.5059 18.7497 18.5734 18.2596 17.9226C17.7266 18.6246 17.2793 17.8456 16.6331 18.0643C15.5329 18.1262 16.7165 17.5118 16.6889 16.9475C16.1055 16.446 15.4466 17.6359 15.0736 17.9559C14.1523 17.7692 13.2402 17.4757 12.3951 17.0287C11.4319 16.4665 10.4866 15.7976 9.78902 14.8492C9.05906 13.8805 8.25216 12.901 7.91907 11.6571C7.21481 9.60344 7.26062 7.3799 7.08075 5.22278C7.14737 3.76229 8.52318 5.37997 9.11799 4.85189C8.91433 4.09444 7.82903 3.85467 7.22945 3.55169C6.65082 3.50689 6.43996 2.92562 5.8242 2.87868C5.85371 2.06789 4.69281 2.51402 4.27025 1.93687C4.68614 0.733488 2.89239 1.96544 3.03229 0.924217C3.32446 0.247315 2.87914 -0.033961 2.48395 0.00324461ZM2.48952 0.105343C2.58332 0.0791068 2.69121 0.100209 2.79994 0.197024C3.31576 0.975807 1.8512 0.10771 2.35941 0.851289C2.05034 0.688864 2.20811 0.184056 2.48952 0.105343ZM3.60852 1.61182C3.73985 1.64302 3.78519 1.73089 3.4245 1.78476L3.27951 1.77643C3.26048 1.60627 3.47718 1.58061 3.60852 1.61182ZM3.46353 2.18065C3.7243 2.30867 4.2589 2.36795 4.34646 2.68906C3.81255 2.37755 4.45269 3.06442 4.00444 3.05162C3.76271 3.05482 3.31507 2.47297 3.46353 2.18065ZM3.3297 2.66406C3.93403 3.17934 2.99293 2.66378 2.61034 2.98703C2.00791 3.0553 3.27069 2.60645 3.3297 2.66406ZM4.9264 2.97244C5.00352 2.99631 5.00351 3.07807 4.87622 3.24957C5.34446 3.87686 4.98128 3.66526 4.66246 3.22039C4.94226 3.43696 4.72644 4.3721 4.29627 3.7288C3.99173 3.09298 3.79892 3.52274 4.12155 3.95801C3.80463 3.2891 2.88723 3.57486 2.21628 3.8309C1.78325 3.77756 3.34155 3.41617 3.51 3.33083C3.77053 3.33643 4.69505 2.90083 4.9264 2.97244ZM6.80379 3.68088C6.99519 3.67811 7.18395 3.6862 7.37072 3.7038C7.67051 4.09533 7.14379 4.75814 6.5956 4.80188C5.92941 5.08139 5.25132 5.14979 4.63271 5.24153C3.83899 5.12952 3.26904 5.92988 2.44677 6.03123C2.66566 5.57677 2.26694 5.87444 1.8501 5.85204C2.06233 6.76951 0.381616 5.60822 1.37424 5.38739C0.630011 5.09081 0.619601 5.96744 0.697641 6.46672H0.647454C-0.0339666 5.4831 0.723902 5.08196 1.58615 4.95607C1.42245 5.40947 1.82159 5.55528 2.20513 5.63742C2.82659 5.4454 1.79632 5.32186 2.26647 5.13943C2.52438 5.08609 1.44422 4.84986 2.34454 4.71437C3.26769 4.54048 4.09823 4.13387 5.01377 3.9205C5.63333 3.78288 6.2296 3.68918 6.80379 3.68088ZM6.59932 3.91425C6.51783 3.88584 6.32835 3.94297 6.23128 4.22888C6.30171 4.40917 6.33664 4.17615 6.32236 4.11428C6.65498 4.0572 6.68081 3.94265 6.59932 3.91425ZM4.67918 4.29764C4.41283 4.2839 3.97646 4.34851 3.82228 4.55601C4.01833 4.65629 4.23391 4.27852 4.51561 4.51642C5.04143 4.40441 4.94554 4.31138 4.67918 4.29764ZM8.48228 4.35181C8.61542 4.32745 9.02765 4.5 8.88192 4.78938C8.782 4.82139 8.79907 4.65251 8.72579 4.62477C8.42386 4.45235 8.4024 4.36644 8.48228 4.35181ZM3.31855 4.75187C3.24894 4.75179 3.19323 4.78713 3.18657 4.88314L3.3204 5.02066C3.85502 5.06947 3.52737 4.75213 3.31855 4.75187ZM3.01928 5.02692C2.92003 5.01066 2.82808 5.07229 2.77764 5.28112C2.8709 5.25552 3.01904 5.31581 3.1085 5.39155C3.67239 5.82362 3.31701 5.07567 3.01928 5.02692ZM6.64579 5.12901C7.1407 5.02044 6.9963 6.4565 6.83725 6.89803C7.13703 6.66866 7.07931 7.96397 6.98223 8.44618C7.14593 8.19974 7.21329 8.84494 7.03056 9.30047C7.04579 9.2258 7.42656 9.16072 7.14581 9.70053C6.93168 9.17139 6.83866 10.7769 6.97666 10.0568C7.35448 9.3762 7.25557 10.0206 7.37072 10.3215C7.44496 10.9456 7.69332 11.5212 7.76851 12.0738C8.11778 12.4685 7.61976 12.2009 7.62166 12.7343C7.73491 12.5796 8.19702 12.9516 8.19417 13.5053C8.23224 12.6273 8.27724 13.2999 8.65887 13.5282C8.97769 14.1043 9.21651 14.6433 9.69236 15.118C10.0635 15.5992 9.66907 15.2611 9.82991 15.5556C10.2239 16.3386 11.1367 16.7926 11.9266 16.9975C12.2731 17.5031 12.7931 18.0061 13.4973 17.7767C12.9016 18.1885 15.1752 18.3005 14.4063 18.5331C14.0066 18.7763 13.6273 18.3763 13.2371 18.3977C12.6946 18.1886 11.8371 17.5478 11.2556 17.983C10.4514 18.5474 11.6677 17.3538 11.0158 17.8872C10.3553 18.7758 10.5672 17.3343 9.92285 17.7663C9.88573 17.6287 9.35013 17.5908 9.75556 17.3475C9.39201 17.3219 9.61865 17.2958 9.74998 16.9704C9.5939 16.9341 8.72634 16.9685 8.38563 16.6495C7.98401 16.0638 8.45574 16.3016 8.87449 16.387C8.20259 16.5192 9.1056 16.952 9.55481 16.712C9.35305 16.616 9.12214 16.1272 8.58823 15.6994C7.8421 15.1958 7.22807 14.9555 6.45434 14.5533C5.61684 13.9965 6.64178 14.3558 6.93205 14.6492C7.76764 15.0621 7.43877 14.0697 6.95435 13.8116C6.4233 13.8361 6.28679 13.1522 5.86138 13.1906C6.53328 13.3112 6.99977 12.9959 6.25173 12.2384C5.5408 11.3081 6.54861 12.9403 6.13462 12.7302C5.94619 12.4517 6.08738 12.0511 5.4859 11.9071C5.47924 12.1642 5.40348 12.5626 5.27214 12.0217C5.10464 12.0537 4.91289 12.2598 4.77584 11.7029C4.90527 11.0703 4.21698 10.9258 4.11039 10.5215C4.70521 10.9472 4.97439 10.6116 4.55279 10.1464C4.26252 9.57782 4.22199 10.0237 4.06021 10.1027C3.47681 10.7705 4.00679 8.95062 3.74793 9.4755C3.48716 9.46697 3.63722 9.7972 3.64198 10.2069C2.78925 9.97003 3.84903 10.7099 4.09552 11.1174C3.70628 10.6608 3.77228 11.4597 3.4468 11.0799C3.3364 10.7439 3.32101 10.2132 2.77949 10.1193C3.39525 9.88038 2.41325 9.39484 2.4951 9.36923C2.84723 9.00971 2.89223 8.51559 3.31669 9.28797C2.77897 9.2389 3.3015 10.2829 3.43379 9.97141C3.41285 9.43693 3.65359 8.87598 2.84083 8.62954C2.60196 8.99013 2.19021 7.92312 2.66797 8.14822C2.60515 7.43985 3.40897 7.85746 3.35758 7.55021C3.77252 7.34645 2.85526 6.68855 3.35014 6.42504C3.72892 6.68321 4.71139 6.0188 4.05091 5.92705C4.46395 5.92278 4.79526 6.12558 4.83904 5.65618C5.17309 5.73726 6.07673 6.0598 5.25541 5.55199C5.51808 5.40584 6.07322 5.28229 6.393 5.27695C6.49162 5.19094 6.57509 5.14453 6.64579 5.12901ZM6.59189 6.0104C6.46675 6.0506 6.2711 6.7962 6.40601 7.06264C6.70294 7.59285 7.00005 5.75948 6.75546 6.37504C6.62413 7.15915 6.48986 6.83149 6.67925 6.24793C6.66783 6.06044 6.6336 5.99699 6.59189 6.0104ZM2.41331 6.70425C2.46061 6.70187 2.54368 6.70612 2.67168 6.72092C3.33217 6.69532 3.1201 7.13177 2.74418 7.16057C2.73561 7.18831 2.39981 7.07027 2.53971 6.96679C3.44573 7.09561 2.08219 6.72092 2.41331 6.70425ZM4.07693 6.96262C4.13201 7.10104 4.22543 7.36153 4.155 7.47728C4.34059 7.68318 4.97458 8.04959 4.46542 7.54604C4.78995 7.4735 4.42255 7.3584 4.22936 7.18557C4.00523 6.80845 4.02185 6.8242 4.07693 6.96262ZM1.92259 6.98138C2.07248 6.97484 2.22635 7.06109 1.9356 7.26058C1.62677 7.08723 1.7727 6.98791 1.92259 6.98138ZM6.14763 7.46687C6.13801 7.45153 6.13297 7.46512 6.14392 7.53979C6.25598 7.82144 6.1765 7.51287 6.14763 7.46687ZM3.89663 7.74816C3.98419 7.89005 4.22119 7.82724 4.33159 7.96486C5.32898 8.42786 4.2421 7.66495 3.89663 7.74816ZM3.74049 7.83567C3.69142 7.84817 3.70024 7.92125 3.80927 8.08988C3.87779 8.26377 4.04303 8.27854 4.18103 8.31908C5.25122 8.87209 3.95312 7.7815 3.74049 7.83567ZM1.89842 7.92944C2.06105 7.95917 2.25664 8.05744 2.04155 8.15239L1.95419 8.11488C1.60634 7.93725 1.7358 7.8997 1.89842 7.92944ZM3.41149 8.07529C3.36275 8.07814 3.40456 8.16012 3.63082 8.38575L3.77767 8.55453C4.52 8.78256 3.55768 8.06674 3.41149 8.07529ZM3.31111 8.29824C3.27279 8.29689 3.61713 8.70967 3.45795 8.70247C2.90692 8.2512 3.13188 8.57036 3.44308 8.91708C3.78094 9.4793 4.06009 8.58218 3.51 8.4691C3.37914 8.34588 3.32388 8.29869 3.31111 8.29824ZM5.64948 8.88583C5.64247 8.91158 5.64125 8.9986 5.65505 9.18796C5.74713 9.28157 5.67049 8.80857 5.64948 8.88583ZM6.13648 8.93375C6.01777 8.93455 5.92862 9.87796 6.22199 10.0756C6.34285 10.465 6.4719 10.3047 6.51568 9.86306C6.23207 9.86946 6.63241 9.17119 6.25173 9.30881C6.21842 9.03704 6.17605 8.93349 6.13648 8.93375ZM6.95621 8.95459C6.93492 8.90165 6.88369 9.0174 6.86513 9.40466V9.51509C6.96791 9.22865 6.97751 9.00753 6.95621 8.95459ZM1.39841 8.98584C1.47362 8.96554 1.90233 9.93882 1.84452 10.2069C1.58185 10.1044 1.59458 9.64373 1.47276 9.40049C1.3883 9.11005 1.37334 8.99261 1.39841 8.98584ZM4.53048 9.03377C4.46101 9.25033 4.67797 9.96052 4.8093 10.2027C5.1443 10.7798 4.99401 9.88706 5.36136 10.4631C5.1596 9.95747 5.45624 10.2327 5.41341 10.0172C5.32014 9.79962 4.41675 8.64771 4.82789 9.51717C5.2 10.5541 4.59425 9.38689 4.53048 9.03377ZM1.22182 9.20254C1.32239 9.27521 1.59195 9.76679 1.64191 10.0402C2.06542 10.612 1.89836 10.927 2.3371 11.6279C1.77274 11.2289 1.66612 10.2765 1.30733 9.66095C1.16065 9.26609 1.16148 9.15894 1.22182 9.20254ZM4.33717 10.9945C4.56419 11.0743 4.42698 11.9067 4.76841 12.0196C5.53072 13.1345 4.24039 12.0524 3.80927 11.9446C3.86447 11.9414 3.42656 11.8051 3.61595 11.7571C3.47796 11.5981 3.16911 11.0208 3.87433 11.407C4.43488 11.7218 4.48191 11.5094 4.21449 11.0091C4.26421 10.9855 4.30473 10.9831 4.33717 10.9945ZM1.76459 11.157C1.78346 11.0506 2.17164 11.7505 2.2423 12.0426C2.45548 12.8032 3.12272 13.2413 3.19029 13.7449C3.92976 14.2228 3.55027 15.0024 4.17173 15.2222C4.44773 15.0654 4.4749 16.161 5.0621 15.9327C4.73566 16.1045 5.19953 16.3076 5.36322 16.6266C5.73343 16.57 6.54484 17.5408 5.73684 17.2058C5.39613 17.1248 5.16347 16.7275 4.92269 16.4682C4.20796 15.9593 3.74411 15.1079 3.352 14.2929C2.84665 13.4362 2.23832 12.5797 1.89285 11.5779C1.79149 11.3179 1.7583 11.1925 1.76459 11.157ZM7.44322 11.8009C7.40554 11.8225 7.40357 11.9491 7.51385 12.2259L7.57891 12.3447C7.66873 12.0173 7.50601 11.7648 7.44322 11.8009ZM4.8725 12.7802C5.08283 12.8315 5.39927 12.9582 5.5268 12.9864C5.56201 13.1561 4.80588 13.1297 5.46731 13.4615C5.08187 13.4498 4.96556 13.4172 5.51564 13.7949C5.29961 13.9891 5.9512 14.1433 5.72755 14.4346C6.39088 15.0149 5.6078 14.5818 5.32419 14.345C5.15669 14.2148 4.47408 13.9562 4.58067 13.7866C5.38581 14.2602 4.78509 13.7658 4.43011 13.4511C5.07917 13.6293 3.91001 12.9122 4.52862 13.101C4.7123 13.1512 4.25049 12.6762 4.85577 13.0219C4.55789 12.752 4.66217 12.7288 4.8725 12.7802ZM8.90981 14.5992C8.82687 14.5664 8.90896 14.9262 9.09383 15.143C9.48783 15.669 9.18812 14.8444 9.05108 14.7825C8.98446 14.6649 8.93745 14.6101 8.90981 14.5992ZM5.43386 15.1159C5.65322 15.1186 6.01187 15.2295 6.23314 15.3618C7.20388 15.604 6.02662 15.8957 5.63832 15.5618L5.47475 15.5222C5.13547 15.2203 5.21449 15.1133 5.43386 15.1159ZM6.59375 15.2305C6.67448 15.2112 7.04142 15.3804 7.19785 15.5431C7.66324 15.6135 7.66531 15.8518 7.15138 15.7035C7.06002 15.6406 6.91272 15.6441 6.86513 15.5118C6.60032 15.3222 6.5453 15.2421 6.59375 15.2305ZM7.21273 15.2389C7.35953 15.2361 7.5999 15.2828 7.67557 15.4076C8.69484 15.5911 7.61107 15.671 7.30938 15.3701C7.01293 15.2939 7.06592 15.2417 7.21273 15.2389ZM7.21273 15.8827C7.32291 15.8554 8.04249 16.1884 7.525 16.114L7.37444 16.0598C7.20718 15.9422 7.176 15.8918 7.21273 15.8827ZM10.6422 16.0765C10.6743 16.0891 10.707 16.1221 10.7296 16.1869C10.4619 16.1821 10.5458 16.0385 10.6422 16.0765ZM7.21644 16.389C7.42554 16.4117 8.22992 16.9043 7.51757 16.6787L7.4079 16.6307L7.28336 16.5661C7.14227 16.4256 7.14675 16.3815 7.21644 16.389ZM8.94698 17.6872C9.04361 17.6699 9.83712 17.7506 9.1626 17.7434C8.95965 17.7087 8.91477 17.6929 8.94698 17.6872ZM6.83725 17.8184C6.89438 17.8327 6.98493 17.864 7.11793 17.9184C7.9697 18.5084 8.95168 18.8204 9.86151 19.2749C10.6609 19.3922 11.5039 19.6294 12.291 19.4395C12.9476 19.8076 13.6287 19.3442 14.2873 19.677C12.8322 19.9949 11.3351 19.6469 9.88568 19.4207C8.97204 19.2917 8.15609 18.8666 7.32239 18.4623C7.20153 18.3983 7.08719 18.3182 6.97108 18.2435C6.39816 17.8872 6.46915 17.8144 7.02685 18.1643C7.22385 18.3403 8.62148 18.9816 7.95624 18.5581C7.70476 18.4881 6.43732 17.7182 6.83725 17.8184ZM12.1348 18.1018C12.2 18.1487 12.2023 18.302 12.1999 18.4956C11.7621 19.0376 12.0231 18.2741 11.7519 18.5685C11.5016 18.7926 11.561 18.4351 11.6961 18.3498C11.9412 18.1145 12.0696 18.0549 12.1348 18.1018ZM15.7836 18.2747C16.1744 18.3125 16.6215 18.4137 16.8803 18.4206C16.7233 18.7908 15.7527 18.4506 15.3264 18.5477L15.1424 18.5352L15.029 18.5144C15.0589 18.2626 15.3928 18.237 15.7836 18.2747ZM19.1443 18.3935C20.1551 18.3924 19.211 18.5582 18.7466 18.556C18.2193 18.4173 18.9854 18.4212 19.1443 18.3935ZM13.0568 18.5414C13.1377 18.5312 13.1653 18.6027 12.936 18.7686L12.8523 18.7977C12.8409 18.642 12.9759 18.5517 13.0568 18.5414ZM12.672 18.6081C12.6869 18.6339 12.6536 18.7077 12.5252 18.8602C12.1511 18.8874 12.6274 18.5308 12.672 18.6081ZM9.02505 18.7248C9.11633 18.6991 10.0995 19.017 10.2258 18.9873C11.228 19.4045 9.62763 19.1231 9.29644 18.8894C9.06398 18.7793 8.99463 18.7334 9.02505 18.7248ZM13.8672 18.779C13.8694 18.807 13.8172 18.8726 13.6702 18.9915L13.5475 19.0811C13.3733 18.9459 13.8607 18.695 13.8672 18.779Z" fill="#222A33"/>
</svg>
