<svg width="20" height="20" viewBox="0 0 20 20" fill="none" xmlns="http://www.w3.org/2000/svg">
<path d="M19.8722 0.140965C19.7809 0.0509513 19.6496 0 19.5127 0H0.487322C0.350366 0 0.219118 0.0509513 0.127814 0.140965C0.0346082 0.230978 -0.0110435 0.351563 0.00227171 0.473845L1.71611 17.6155C1.73323 17.7955 1.87399 17.945 2.06801 17.9959L9.86495 19.983C9.90679 19.9949 9.95245 20 9.9981 20C10.0437 20 10.0875 19.9949 10.1312 19.983L17.9339 17.9959C18.1279 17.945 18.2668 17.7955 18.2858 17.6155L19.9977 0.473845C20.011 0.351563 19.9654 0.230978 19.8722 0.140965ZM15.7692 6.05129H6.60846L6.8272 8.26427H15.5486L14.8942 14.8047L9.9962 16.126L9.94864 16.1124L5.10766 14.803L4.84326 12.1382H7.21524L7.31796 13.1726L10.0247 13.6787L12.682 13.1726L12.9655 10.3736H4.66636L4.02153 3.93682H15.9804L15.7692 6.05129Z" fill="white"/>
</svg>
