<svg width="20" height="20" viewBox="0 0 20 20" fill="none" xmlns="http://www.w3.org/2000/svg">
<path d="M7.487 13.75C7.487 14.164 7.1515 14.5 6.737 14.5C6.3225 14.5 5.987 14.164 5.987 13.75V6.75C5.987 6.4235 6.1985 6.1345 6.5095 6.035C6.822 5.936 7.1605 6.05 7.349 6.3165L15.7375 18.1685C18.3085 16.3545 20 13.3675 20 10C20 4.5 15.5 0 10 0C4.5 0 0 4.5 0 10C0 15.5 4.5 20 10 20C11.596 20 13.103 19.6115 14.445 18.939L7.487 9.108V13.75ZM12.487 6.25C12.487 5.836 12.8225 5.5 13.237 5.5C13.6515 5.5 13.987 5.836 13.987 6.25V13.17L12.487 11.0565V6.25Z" fill="#222A33"/>
</svg>
