<svg width="20" height="20" viewBox="0 0 20 20" fill="none" xmlns="http://www.w3.org/2000/svg">
<path d="M10.0037 20C9.70158 20 9.40211 19.93 9.13737 19.7946L6.37947 18.3459C5.96737 18.1414 6.16842 18.069 6.30421 18.0275C6.85368 17.8571 6.96474 17.8183 7.55105 17.5228C7.61263 17.4915 7.69316 17.5027 7.75632 17.5359L9.87526 18.6512C9.95158 18.6881 10.0605 18.6881 10.1311 18.6512L18.3926 14.4209C18.4689 14.3822 18.5189 14.3037 18.5189 14.223V5.76654C18.5189 5.68204 18.4695 5.60687 18.3911 5.56485L10.1332 1.33782C10.0568 1.29766 9.95526 1.29766 9.87895 1.33782L1.62211 5.56439C1.54211 5.60454 1.49105 5.68344 1.49105 5.76421V14.2211C1.49105 14.3019 1.54053 14.3789 1.61947 14.4172L3.88211 15.5764C5.11053 16.1212 5.86105 15.4793 5.86105 14.8336V6.48739C5.86105 6.36834 5.96632 6.27636 6.10105 6.27636H7.14737C7.27789 6.27636 7.38526 6.36787 7.38526 6.48739V14.8378C7.38526 16.2907 6.49211 17.1255 4.93895 17.1255C4.46105 17.1255 4.08474 17.1255 3.03421 16.667L0.866842 15.5591C0.331053 15.2837 0 14.7697 0 14.2216V5.76467C0 5.21424 0.331053 4.70068 0.866316 4.42896L9.13684 0.196786C9.66 -0.0655952 10.3547 -0.0655952 10.8742 0.196786L19.1342 4.43083C19.6668 4.70395 20 5.2161 20 5.76654V14.2234C20 14.772 19.6668 15.2837 19.1337 15.5591L10.8737 19.7908C10.6089 19.9267 10.3089 19.9963 10.0032 19.9963" fill="white"/>
<path d="M12.5558 14.1725C8.94105 14.1725 8.18316 12.7005 8.18316 11.4661C8.18316 11.3489 8.29 11.2551 8.42263 11.2551H9.49C9.6079 11.2551 9.70737 11.3312 9.72579 11.4343C9.88684 12.3989 10.3668 12.8854 12.5526 12.8854C14.2937 12.8854 15.0342 12.5366 15.0342 11.7173C15.0342 11.2457 14.8232 10.8956 12.1184 10.6607C9.85579 10.4628 8.4579 10.0207 8.4579 8.41557C8.4579 6.93699 9.86421 6.05647 12.2195 6.05647C14.8647 6.05647 16.1758 6.87116 16.3411 8.62099C16.3474 8.68168 16.3226 8.74004 16.2768 8.78439C16.2316 8.82641 16.1674 8.85209 16.1011 8.85209H15.0279C14.9163 8.85209 14.8189 8.78253 14.7963 8.68682C14.5379 7.67231 13.9132 7.34783 12.2153 7.34783C10.3147 7.34783 10.0937 7.93469 10.0937 8.37495C10.0937 8.90858 10.3542 9.06451 12.9184 9.36565C15.4579 9.66444 16.6637 10.0865 16.6637 11.6696C16.6637 13.2654 15.1621 14.1809 12.5442 14.1809" fill="white"/>
</svg>
