<svg width="20" height="20" viewBox="0 0 20 20" fill="none" xmlns="http://www.w3.org/2000/svg">
<path d="M10.2547 3.85088e-05C9.43633 0.00267008 8.86897 0.0747751 8.1832 0.193196C6.15799 0.545826 5.78905 1.28635 5.78905 2.65108V4.73686H10.5258V5.78949H5.60905H3.31963C1.9323 5.78949 0.718115 6.44317 0.333387 8.01001C-0.101339 9.80842 -0.120812 10.9347 0.333387 12.8126C0.678116 14.2131 1.43757 15.2631 2.82543 15.2631H4.73697V12.5768C4.73697 11.0158 6.15062 9.47369 7.77058 9.47369H11.5789C12.9068 9.47369 14.2104 8.49369 14.2104 7.17001V2.65108C14.2104 1.3674 13.2847 0.407405 11.9905 0.192143C12.0226 0.188985 11.0663 -0.00311937 10.2547 3.85088e-05ZM7.63163 2.10529C8.06373 2.10529 8.42109 2.46161 8.42109 2.89582C8.42109 3.33424 8.06373 3.68423 7.63163 3.68423C7.19112 3.68423 6.84218 3.33476 6.84218 2.89582C6.84218 2.46319 7.19112 2.10529 7.63163 2.10529Z" fill="#0277BD"/>
<path d="M9.74474 20C10.5631 19.9973 11.1305 19.9252 11.8163 19.8068C13.8415 19.4542 14.2104 18.7137 14.2104 17.3489V15.2631H9.4737V14.2105H14.3909H16.6804C18.0677 14.2105 19.2819 13.5568 19.6666 11.99C20.1013 10.1916 20.1208 9.06527 19.6666 7.18738C19.3214 5.78686 18.5619 4.73686 17.174 4.73686H15.2625V7.42317C15.2625 8.98421 13.8489 10.5263 12.2289 10.5263H8.42056C7.0927 10.5263 5.78905 11.5063 5.78905 12.83V17.3489C5.78905 18.6326 6.71481 19.5926 8.00899 19.8079C7.97689 19.811 8.93318 20.0031 9.74474 20ZM12.3684 17.8947C11.9363 17.8947 11.5789 17.5384 11.5789 17.1042C11.5789 16.6658 11.9363 16.3158 12.3684 16.3158C12.8089 16.3158 13.1578 16.6652 13.1578 17.1042C13.1578 17.5368 12.8084 17.8947 12.3684 17.8947Z" fill="#0E141B"/>
</svg>
