<svg width="20" height="20" viewBox="0 0 20 20" fill="none" xmlns="http://www.w3.org/2000/svg">
<path d="M11.625 10C11.625 10.9981 10.8982 11.8057 10 11.8057C9.10175 11.8057 8.375 10.9981 8.375 10C8.375 9.00187 9.10175 8.1943 10 8.1943C10.8982 8.1943 11.625 9.00187 11.625 10Z" fill="white"/>
<path d="M10 11.9446C9.03525 11.9446 8.25 11.0723 8.25 10C8.25 8.92769 9.03525 8.0554 10 8.0554C10.9647 8.0554 11.75 8.92769 11.75 10C11.75 11.0723 10.9647 11.9446 10 11.9446ZM10 8.3332C9.17275 8.3332 8.5 9.08076 8.5 10C8.5 10.9192 9.17275 11.6668 10 11.6668C10.8272 11.6668 11.5 10.9192 11.5 10C11.5 9.08076 10.8272 8.3332 10 8.3332Z" fill="white"/>
<path d="M6.1185 19.8628C5.69075 19.8628 5.30125 19.7539 4.9605 19.5394C4.3905 19.1802 3.9965 18.5613 3.789 17.7004C3.54775 16.6983 3.5765 15.3674 3.872 13.845C1.489 12.9341 0.125 11.5365 0.125 10C0.125 8.46321 1.48875 7.06587 3.87175 6.15524C3.57625 4.63261 3.54725 3.30167 3.7885 2.29964C3.996 1.43846 4.39 0.819516 4.95975 0.460598C5.30025 0.246135 5.69 0.137238 6.11775 0.137238C7.21475 0.137238 8.5905 0.895634 10.0005 2.27575C11.4105 0.897023 12.7858 0.139182 13.8815 0.139182C14.3093 0.139182 14.6988 0.24808 15.0395 0.462542C15.6088 0.821183 16.003 1.43901 16.2105 2.29908C16.452 3.30083 16.423 4.63206 16.1273 6.15496C18.5108 7.06559 19.875 8.46321 19.875 10C19.875 11.5368 18.5108 12.9344 16.1273 13.8453C16.4228 15.3679 16.4518 16.6989 16.2103 17.7006C16.0028 18.561 15.609 19.1788 15.0402 19.5375C14.6992 19.7519 14.3095 19.8608 13.882 19.8608C12.7855 19.8608 11.4097 19.103 10.0002 17.7248C8.59025 19.1047 7.21475 19.8628 6.1185 19.8628ZM4.83425 14.1687C4.5865 15.4791 4.55875 16.5986 4.75525 17.4131C4.89075 17.9759 5.1255 18.3663 5.45375 18.5729C5.642 18.6916 5.86575 18.7518 6.1185 18.7518C6.967 18.7518 8.084 18.1179 9.27375 16.9636C8.6775 16.2964 8.0955 15.541 7.54175 14.716C6.584 14.6004 5.674 14.4165 4.83425 14.1687ZM10.7265 16.9631C11.916 18.1162 13.0333 18.7496 13.8818 18.7499C14.1345 18.7499 14.3582 18.6896 14.547 18.571C14.8742 18.3649 15.1085 17.9754 15.2437 17.4134C15.4402 16.5983 15.4127 15.4791 15.165 14.169C14.3245 14.4168 13.4142 14.6007 12.4567 14.7162C11.9032 15.5413 11.322 16.2964 10.7265 16.9631ZM8.8915 14.8318C9.2545 15.3252 9.626 15.7855 10 16.2041C10.373 15.7858 10.7448 15.3254 11.1075 14.8318C10.7348 14.8515 10.3635 14.8615 10 14.8615C9.63625 14.8615 9.26475 14.8515 8.8915 14.8318ZM8.08725 13.6611C8.711 13.7203 9.35425 13.7503 10 13.7503C10.6463 13.7503 11.2887 13.7203 11.9115 13.6614C12.283 13.0825 12.6373 12.4758 12.965 11.8571C13.282 11.2584 13.5803 10.6337 13.8518 9.99973C13.581 9.36745 13.283 8.74295 12.9653 8.1429C12.6383 7.52563 12.284 6.91891 11.9115 6.33859C11.2892 6.27969 10.6467 6.24969 10 6.24969C9.353 6.24969 8.71025 6.27969 8.08825 6.33887C7.71575 6.91836 7.361 7.52508 7.0335 8.14318C6.716 8.74295 6.418 9.36745 6.147 10.0006C6.4175 10.6323 6.7155 11.2568 7.03325 11.8574C7.35925 12.4727 7.7135 13.0791 8.08725 13.6611ZM14.3728 11.3276C14.1963 11.7015 14.0132 12.0682 13.8265 12.4205C13.6382 12.7766 13.438 13.1339 13.23 13.4861C13.8235 13.3845 14.3913 13.2542 14.9228 13.0972C14.7753 12.528 14.5905 11.9343 14.3728 11.3276ZM5.076 13.0969C5.60775 13.2536 6.17525 13.3842 6.768 13.4858C6.55875 13.1314 6.3585 12.7738 6.1715 12.4205C5.98525 12.0685 5.802 11.7024 5.62575 11.3284C5.409 11.9324 5.2245 12.5255 5.076 13.0969ZM14.954 10C15.336 10.942 15.6472 11.8732 15.881 12.7716C17.7315 12.0482 18.875 10.9929 18.875 10C18.875 9.00714 17.7315 7.95178 15.881 7.22838C15.6477 8.12679 15.3363 9.05798 14.954 10ZM4.118 7.22894C2.26825 7.95206 1.125 9.00742 1.125 10C1.125 10.9929 2.26825 12.0482 4.1185 12.7713C4.352 11.8727 4.66325 10.9415 5.04475 10.0006C4.663 9.05937 4.35175 8.12818 4.118 7.22894ZM5.07575 6.90308C5.22425 7.47368 5.40875 8.06707 5.62575 8.67212C5.80175 8.29931 5.98475 7.93289 6.17175 7.5798C6.35975 7.22449 6.56 6.86724 6.76875 6.51416C6.17525 6.61555 5.60775 6.74612 5.07575 6.90308ZM13.2305 6.51388C13.4398 6.86863 13.64 7.22588 13.827 7.5798C14.0135 7.93178 14.1968 8.2982 14.3733 8.67212C14.5905 8.06734 14.775 7.47396 14.9235 6.9028C14.391 6.74584 13.8235 6.61528 13.2305 6.51388ZM6.11775 1.24844C5.865 1.24844 5.6415 1.30845 5.4535 1.42734C5.1255 1.63403 4.8905 2.02434 4.75475 2.58716C4.5585 3.40251 4.586 4.52177 4.834 5.8316C5.674 5.5838 6.5845 5.39962 7.5425 5.28406C8.09675 4.45871 8.67875 3.70392 9.27425 3.0372C8.08425 1.88238 6.9665 1.24844 6.11775 1.24844ZM12.457 5.28378C13.4145 5.39934 14.3247 5.58325 15.1652 5.83105C15.4132 4.52094 15.441 3.4014 15.2443 2.58633C15.1088 2.02462 14.8743 1.63514 14.5468 1.42901C14.3583 1.31039 14.1345 1.25011 13.8815 1.25011C13.0333 1.25011 11.9165 1.88377 10.7268 3.0372C11.3218 3.70365 11.9032 4.45871 12.457 5.28378ZM10 5.13849C10.3635 5.13849 10.7347 5.14849 11.1077 5.16821C10.7452 4.67539 10.3737 4.21536 10.0005 3.79643C9.62625 4.21591 9.255 4.67595 8.8925 5.16821C9.26525 5.14849 9.6365 5.13849 10 5.13849Z" fill="white"/>
<path d="M6.11775 0.276134C7.24125 0.276134 8.61675 1.08453 10.0007 2.46159C11.3845 1.08565 12.7593 0.278079 13.8818 0.278079C14.2875 0.278079 14.6565 0.380865 14.9782 0.583382C15.5172 0.922855 15.8913 1.51207 16.0898 2.33519C16.359 3.42334 16.3025 4.76317 15.9812 6.24663C18.2867 7.10254 19.75 8.45293 19.75 10C19.75 11.5471 18.2867 12.8975 15.981 13.7536C16.3162 15.3574 16.3725 16.7333 16.0895 17.6648C15.891 18.4877 15.5173 19.0771 14.9788 19.4166C14.6565 19.6194 14.3638 19.723 13.9583 19.723C13.958 19.723 13.8543 19.723 13.854 19.723C12.731 19.723 11.3835 18.9146 10 17.5392C8.61625 18.916 7.24125 19.7239 6.11825 19.7239C5.7125 19.7239 5.3435 19.6211 5.02175 19.4186C4.48225 19.0783 4.108 18.4882 3.90975 17.6645C3.61225 16.6319 3.67225 15.2746 4.01825 13.7534C1.713 12.8972 0.25 11.5471 0.25 10C0.25 8.4532 1.713 7.10281 4.018 6.24663C3.84625 5.39684 3.7365 4.60788 3.73275 3.88838C3.72975 3.32 3.7995 2.79134 3.9095 2.33547C4.108 1.51151 4.482 0.921466 5.0215 0.581437C5.343 0.378643 5.712 0.276134 6.11775 0.276134ZM4.7395 6.00356C5.60875 5.73826 6.574 5.53768 7.61025 5.41545C8.20575 4.52371 8.829 3.72198 9.45675 3.03081C8.23875 1.82349 7.05275 1.10926 6.11775 1.10926C5.843 1.10926 5.599 1.17538 5.39175 1.30622C5.0335 1.53207 4.77875 1.95072 4.634 2.55105C4.4195 3.44056 4.46825 4.64289 4.7395 6.00356ZM15.2598 6.00328C15.531 4.64261 15.5797 3.44001 15.3652 2.55049C15.2207 1.95127 14.966 1.53346 14.6085 1.30816C14.401 1.17732 14.1563 1.1112 13.8818 1.1112C12.9475 1.1112 11.7623 1.8246 10.5445 3.03081C11.172 3.72198 11.7945 4.52371 12.3895 5.41517C13.4252 5.53741 14.3905 5.73798 15.2598 6.00328ZM8.61925 5.3235C9.06975 5.29377 9.5215 5.26794 9.99125 5.26794C10.461 5.26794 10.93 5.29405 11.3805 5.3235C10.9285 4.69039 10.4645 4.11201 10.0002 3.60002C9.536 4.11201 9.07175 4.69039 8.61925 5.3235ZM10 13.8892C10.6902 13.8892 11.351 13.8556 11.9795 13.7942C12.3592 13.2061 12.7265 12.5816 13.0725 11.9277C13.4108 11.289 13.7167 10.6426 13.99 10C13.7167 9.35745 13.4108 8.71128 13.0728 8.07289C12.7265 7.41867 12.3595 6.79445 11.9795 6.20635C11.3512 6.1444 10.6905 6.11079 10 6.11079C9.3095 6.11079 8.6485 6.1444 8.02 6.20607C7.63975 6.79418 7.27225 7.41867 6.926 8.07262C6.588 8.71128 6.282 9.35772 6.00875 10.0003C6.282 10.6428 6.58775 11.289 6.92575 11.9274C7.272 12.5813 7.63925 13.2058 8.01925 13.7939C8.648 13.8556 9.30925 13.8892 10 13.8892ZM14.3865 9.00353C14.6678 8.25096 14.9005 7.51201 15.078 6.80529C14.4398 6.61027 13.7347 6.44915 12.971 6.33108C13.228 6.75528 13.4782 7.19504 13.719 7.65008C13.9575 8.09984 14.1793 8.5521 14.3865 9.00353ZM5.61225 9.00381C5.81925 8.55238 6.04125 8.10012 6.27925 7.65008C6.52025 7.19504 6.77075 6.75556 7.028 6.33136C6.26425 6.44915 5.55925 6.61055 4.921 6.80557C5.0985 7.51229 5.33125 8.25097 5.61225 9.00381ZM15.797 12.9508C17.816 12.1907 19 11.074 19 10C19 8.92602 17.816 7.80926 15.797 7.0492C15.5587 7.99511 15.2298 8.98908 14.817 9.99972C15.2298 11.0106 15.5587 12.0046 15.797 12.9508ZM4.2025 12.9505C4.4405 12.0049 4.76925 11.0109 5.182 10.0006C4.76925 8.98992 4.44025 7.99567 4.20225 7.04975C2.1835 7.80982 1 8.9263 1 10C1 11.074 2.18375 12.1905 4.2025 12.9505ZM12.971 13.6689C13.7347 13.5511 14.4398 13.39 15.078 13.1947C14.9003 12.488 14.6675 11.749 14.3865 10.9962C14.1793 11.4476 13.9572 11.8999 13.719 12.3499C13.4782 12.805 13.228 13.2447 12.971 13.6689ZM7.02725 13.6686C6.77025 13.2444 6.52 12.805 6.279 12.3502C6.041 11.9004 5.81925 11.4485 5.61225 10.9973C5.33125 11.7496 5.09875 12.4883 4.92125 13.1947C5.55925 13.3894 6.264 13.5506 7.02725 13.6686ZM6.1185 18.8905C7.05325 18.8905 8.23875 18.1765 9.4565 16.9697C8.82825 16.2783 8.20525 15.4763 7.6095 14.5843C6.57375 14.4623 5.609 14.2617 4.74 13.9964C4.469 15.3571 4.42025 16.5594 4.6345 17.449C4.779 18.049 5.034 18.4676 5.392 18.6935C5.599 18.8243 5.84375 18.8905 6.1185 18.8905ZM13.8818 18.8888C14.1565 18.8888 14.4007 18.8227 14.6085 18.6918C14.966 18.4665 15.2203 18.0487 15.3645 17.4492C15.579 16.5594 15.5302 15.3571 15.2592 13.9967C14.39 14.262 13.425 14.4626 12.389 14.5845C11.794 15.4763 11.1712 16.278 10.5437 16.9695C11.7615 18.1751 12.947 18.8885 13.8818 18.8888ZM10 16.4005C10.4642 15.8883 10.9282 15.3096 11.3805 14.6765C10.9302 14.7062 10.4908 14.769 10.0208 14.769C9.5505 14.769 9.069 14.7062 8.6185 14.6765C9.071 15.3099 9.5355 15.8885 10 16.4005ZM6.029 0.0191683C5.57925 0.0191683 5.25775 0.113065 4.89825 0.339473C4.2985 0.71756 3.8845 1.36484 3.668 2.26352C3.428 3.25999 3.44875 4.56983 3.727 6.06412C1.35475 6.99669 0 8.42348 0 10C0 11.5768 1.355 13.0033 3.72725 13.9359C3.449 15.4302 3.42825 16.74 3.6685 17.7365C3.88475 18.6346 4.2985 19.2819 4.89875 19.6605C5.25875 19.8872 5.69125 19.9836 6.14075 19.9836C7.2625 19.9836 8.579 19.2794 10.0002 17.9095C11.4212 19.278 12.76 19.9997 13.8815 20C14.3313 20 14.7418 19.8853 15.1018 19.6586C15.701 19.2811 16.1145 18.6346 16.3307 17.737C16.571 16.7403 16.5502 15.4305 16.272 13.9364C18.6447 13.0036 20 11.5768 20 10C20 8.4232 18.645 6.99642 16.2722 6.06384C16.5507 4.56927 16.5712 3.25944 16.331 2.26297C16.1145 1.36539 15.7007 0.718949 15.1012 0.341417C14.7415 0.11501 14.331 0 13.8815 0C12.7603 0 11.4217 0.722005 10.0005 2.09101C8.579 0.720893 7.234 0.0183349 6.112 0.0183349L6.029 0.0191683ZM4.93 5.65992C4.8145 5.01431 4.737 4.40926 4.73275 3.87866C4.729 3.40084 4.788 2.98497 4.87525 2.62272C5.002 2.09712 5.21725 1.73542 5.515 1.54763C5.684 1.44095 5.89 1.36873 6.12075 1.36873C6.916 1.36873 7.9625 1.97378 9.0915 3.04498C8.53625 3.67642 7.9935 4.3837 7.475 5.1521C6.57875 5.26322 5.72425 5.43351 4.93 5.65992ZM10.9095 3.04553C12.0383 1.97516 13.0873 1.389 13.8815 1.389C14.1125 1.389 14.3157 1.44318 14.485 1.54985C14.7822 1.73709 14.9972 2.09795 15.1237 2.62244C15.3422 3.40528 15.314 4.44593 15.0693 5.65964C14.275 5.43351 13.4207 5.26294 12.5247 5.15237C12.0065 4.38425 11.4643 3.67697 10.9095 3.04553ZM9.16825 5.01625C9.44225 4.65511 9.7205 4.31341 10.0002 3.9945C10.28 4.31341 10.558 4.65511 10.8317 5.01625C10.552 5.00514 10.2738 4.99958 10 4.99958C9.72625 4.99958 9.44825 5.00514 9.16825 5.01625ZM8.15625 6.47193C8.7575 6.41665 9.377 6.3772 10 6.3772C10.6227 6.3772 11.2423 6.41665 11.8433 6.47193C12.2013 7.03281 12.5423 7.61813 12.8573 8.21346C13.1628 8.79073 13.4505 9.39106 13.713 9.99972C13.4503 10.6087 13.1625 11.2093 12.857 11.7865C12.5418 12.3821 12.201 12.9672 11.843 13.5281C11.2423 13.5834 10.6227 13.6575 10 13.6575C9.37675 13.6575 8.757 13.5831 8.1555 13.5278C7.79725 12.9672 7.45625 12.3819 7.141 11.7863C6.8355 11.2093 6.548 10.6089 6.2855 10C6.548 9.39106 6.83575 8.79045 7.14125 8.21318C7.45675 7.61786 7.798 7.03253 8.15625 6.47193ZM14.3555 8.33986C14.2183 8.05706 14.0775 7.77926 13.9347 7.50924C13.7922 7.24005 13.643 6.96975 13.4885 6.70111C13.932 6.78501 14.3598 6.8853 14.767 7.00114C14.6503 7.43617 14.5125 7.88399 14.3555 8.33986ZM5.232 7.00114C5.63925 6.8853 6.067 6.78501 6.5105 6.70111C6.35575 6.96975 6.2065 7.24005 6.064 7.50896C5.92125 7.77898 5.7805 8.05678 5.64325 8.33958C5.48625 7.88427 5.34875 7.43645 5.232 7.00114ZM15.0913 9.99972C15.445 9.12132 15.738 8.2518 15.9637 7.40895C17.6895 8.10873 18.75 9.08909 18.75 10C18.75 10.9109 17.6895 11.8913 15.9637 12.591C15.7377 11.7479 15.445 10.8781 15.0913 9.99972ZM4.0355 12.5908C2.31025 11.891 1.25 10.9106 1.25 10C1.25 9.08937 2.31025 8.10901 4.03525 7.40923C4.261 8.25235 4.55375 9.12187 4.9075 10.0003C4.554 10.8784 4.26125 11.7479 4.0355 12.5908ZM13.4882 13.2992C13.6427 13.0303 13.7922 12.76 13.9345 12.491C14.0775 12.221 14.2183 11.9429 14.3555 11.6601C14.5125 12.116 14.65 12.5641 14.767 12.9994C14.3595 13.1147 13.9317 13.2153 13.4882 13.2992ZM5.23225 12.9989C5.349 12.5638 5.4865 12.1163 5.64325 11.661C5.78025 11.9435 5.921 12.2213 6.06375 12.491C6.206 12.76 6.35525 13.03 6.51 13.2989C6.06675 13.2147 5.63925 13.1144 5.23225 12.9989ZM6.1185 18.6127C5.8875 18.6127 5.6845 18.5585 5.51525 18.4518C5.21775 18.264 5.0025 17.9026 4.876 17.377C4.66825 16.5867 4.69175 15.5457 4.9305 14.3398C5.7245 14.5659 6.5785 14.7365 7.47425 14.8471C7.993 15.6155 8.53575 16.323 9.09125 16.955C7.9625 18.0265 6.91325 18.6129 6.1185 18.6127ZM12.5245 14.8476C13.4205 14.7368 14.2748 14.5665 15.069 14.3404C15.3453 15.6571 15.367 16.7067 15.1233 17.3773C14.997 17.902 14.7823 18.2629 14.4853 18.4499C14.3158 18.5565 14.1127 18.6107 13.882 18.6107C13.087 18.6107 12.0375 18.0246 10.909 16.9547C11.464 16.3233 12.0062 15.616 12.5245 14.8476ZM10 16.0061C9.72 15.6871 9.4415 15.3452 9.1675 14.9837C9.4475 14.9949 9.726 15.0004 10 15.0004C10.2738 15.0004 10.552 14.9949 10.8317 14.9837C10.558 15.3452 10.2797 15.6871 10 16.0061Z" fill="white"/>
</svg>
