<svg width="20" height="20" viewBox="0 0 20 20" fill="none" xmlns="http://www.w3.org/2000/svg">
<path d="M17.2117 11.4957C16.5129 11.5005 15.9073 11.7247 15.3998 12.0582C15.2142 11.5641 15.0262 11.1291 14.9946 10.8057C14.9578 10.4285 14.915 10.2033 14.9594 9.7534C15.0038 9.30354 15.199 8.66691 15.1958 8.61941C15.193 8.57192 15.1522 8.34298 14.749 8.33872C14.3458 8.33498 14.001 8.44224 13.9602 8.58419C13.9194 8.72614 13.8418 9.04579 13.7938 9.37932C13.723 9.86707 12.9891 11.6067 12.5719 12.5166C12.4355 12.1612 12.3195 11.8485 12.2955 11.6009C12.2587 11.2236 12.2159 10.9984 12.2603 10.5485C12.3047 10.0987 12.4999 9.46203 12.4967 9.41454C12.4939 9.36705 12.4531 9.13811 12.0499 9.13384C11.6467 9.13011 11.3019 9.23737 11.2611 9.37932C11.2203 9.52127 11.1771 9.85319 11.0948 10.1744C11.012 10.4957 10.036 13.3971 9.78041 14.149C9.65001 14.5322 9.53682 14.8401 9.45682 15.0503L9.45642 15.0493C9.45642 15.0493 9.45162 15.0631 9.44282 15.0872C9.37442 15.2659 9.33363 15.3652 9.33363 15.3652C9.33363 15.3652 9.33403 15.3668 9.33483 15.3689C9.28043 15.5002 9.22243 15.6224 9.19363 15.6224C9.17363 15.6224 9.13323 15.2723 9.20243 14.7926C9.34762 13.7861 9.69641 12.2162 9.69321 12.1623C9.69161 12.1345 9.75801 11.8613 9.46522 11.7177C9.18083 11.579 9.07924 11.8106 9.05324 11.8111C9.02804 11.8117 9.00924 11.8928 9.00924 11.8928C9.00924 11.8928 9.32643 10.1275 8.40446 10.1275C7.82849 10.1275 7.03012 10.9685 6.63654 11.7305C6.38855 11.9109 5.85737 12.2978 5.2938 12.7109C5.0774 12.8693 4.85661 13.0316 4.64702 13.1858C4.63262 13.165 4.61862 13.1436 4.60382 13.1228C3.48627 11.532 1.42076 10.4071 1.50836 8.26881C1.54035 7.49129 1.74275 5.44424 5.47779 2.9612C8.53726 0.926953 10.9868 1.48674 11.4099 2.72746C12.0147 4.49969 10.1008 7.79387 6.92373 8.26881C5.71298 8.44971 5.0758 7.82375 4.91701 7.59055C4.75022 7.34507 4.72542 7.33387 4.66302 7.38029C4.56143 7.45554 4.62582 7.6722 4.66302 7.80134C4.75782 8.13059 5.147 8.71493 5.81097 9.00524C6.39495 9.26085 7.81609 9.4012 9.53522 8.51428C11.4603 7.52064 12.9635 4.75691 12.5223 2.44677C12.0731 0.0971391 9.15323 -0.675042 6.38975 0.634517C4.74502 1.41417 2.96469 2.63781 1.68435 4.235C0.162012 6.13477 -0.0803778 7.788 0.019618 8.47853C0.375203 10.9333 2.9107 12.5315 3.92625 13.7162C3.87626 13.7531 3.82906 13.7877 3.78626 13.8192C3.27708 14.1554 1.34436 15.505 0.860783 16.9309C0.312406 18.5484 0.947979 19.709 1.36916 19.8654C2.67311 20.3494 4.01145 19.4785 4.73062 18.0473C5.44979 16.6166 5.36179 14.7536 5.03181 13.903C5.02781 13.8923 5.02301 13.8822 5.01901 13.8715C5.1506 13.7675 5.2846 13.6623 5.41739 13.5583C5.67658 13.3555 5.93097 13.166 6.15176 13.0054C6.02816 13.4569 5.93777 13.998 5.89057 14.7798C5.83537 15.6982 6.11736 16.885 6.48655 17.3519C6.64894 17.5574 6.84453 17.5622 6.96852 17.5622C7.39811 17.5622 7.5941 17.0857 7.80969 16.5216C8.07448 15.83 8.30927 15.0253 8.30927 15.0253C8.30927 15.0253 8.01448 17.1999 8.81765 17.1999C9.11004 17.1999 9.40442 16.6934 9.53562 16.4357C9.53602 16.4383 9.53602 16.4399 9.53602 16.4399C9.53602 16.4399 9.54362 16.4234 9.55842 16.3892C9.58881 16.3273 9.60601 16.2879 9.60601 16.2879C9.60601 16.2879 9.60681 16.2836 9.60761 16.2767C9.72521 16.0045 9.986 15.3833 10.3772 14.3587C10.8824 13.0353 11.3671 11.3778 11.3671 11.3778C11.3671 11.3778 11.4123 11.7834 11.5599 12.4531C11.6467 12.8475 11.8315 13.2834 11.9771 13.7013C11.8599 13.9185 11.7879 14.0428 11.7879 14.0428C11.7879 14.0428 11.7887 14.045 11.7899 14.0492C11.6963 14.2152 11.5911 14.394 11.4811 14.569C11.0824 15.203 10.6072 15.9266 10.5436 16.1358C10.4688 16.3818 10.4864 16.5632 10.6312 16.7084C10.7368 16.8146 10.9252 16.8311 11.122 16.8135C11.4803 16.7815 11.7327 16.6625 11.8571 16.5904C12.0511 16.4992 12.2771 16.3551 12.4891 16.147C12.8803 15.7633 13.1163 15.2142 13.0939 14.4868C13.0815 14.086 12.9855 13.689 12.8643 13.3139C12.8999 13.2456 12.9355 13.1773 12.9711 13.1073C13.5878 11.904 14.0662 10.5821 14.0662 10.5821C14.0662 10.5821 14.1114 10.9877 14.259 11.6574C14.3338 11.9968 14.4814 12.3667 14.6138 12.7295C14.0338 13.3582 13.6742 14.0887 13.549 14.5679C13.3183 15.4543 13.499 15.8561 13.8382 15.9474C13.9918 15.989 14.209 15.8951 14.3722 15.8028C14.5754 15.7131 14.8194 15.5632 15.0474 15.3396C15.4386 14.9559 15.815 14.4185 15.7922 13.6912C15.7818 13.3603 15.7146 13.0316 15.6234 12.7157C16.1149 12.4424 16.7517 12.2903 17.5625 12.4168C19.302 12.6879 19.6432 14.1367 19.578 14.743C19.5128 15.3497 19.148 15.6827 19.026 15.7836C18.904 15.8844 18.8668 15.9191 18.8772 15.9938C18.892 16.1027 18.9484 16.0984 19.0524 16.0749C19.1956 16.0429 19.9656 15.5818 19.9988 14.4623C20.0404 13.0438 19.0196 11.4829 17.2117 11.4957ZM3.80506 17.5259C3.22908 18.3643 2.42392 18.6812 2.07873 18.4144C1.70595 18.1263 1.85354 16.8914 2.56071 16.0018C2.99149 15.4596 3.54787 14.9602 3.91705 14.6522C4.00105 14.585 4.12425 14.4857 4.27424 14.3657C4.29904 14.347 4.31304 14.3363 4.31304 14.3363L4.31264 14.3353C4.34144 14.3123 4.37143 14.2883 4.40183 14.2637C4.65902 15.5306 4.40983 16.6459 3.80506 17.5259ZM8.00208 13.7189C7.80129 14.3715 7.38131 16.0413 7.12572 15.9517C6.90613 15.8748 6.77253 14.6053 7.08172 13.3566C7.23731 12.7279 7.5697 11.9766 7.76529 11.6847C8.07968 11.2156 8.42606 11.0619 8.51006 11.2524C8.61766 11.4947 8.12808 13.3096 8.00208 13.7189ZM11.4699 15.9266C11.3847 15.9858 11.3067 16.0232 11.2707 15.9944C11.2439 15.973 11.3059 15.8951 11.3059 15.8951C11.3059 15.8951 11.7395 15.2723 11.9107 14.989C12.0099 14.8241 12.1255 14.6282 12.2507 14.4094C12.2519 14.4313 12.2523 14.4532 12.2523 14.4745C12.2507 15.2206 11.7107 15.7238 11.4699 15.9266ZM14.1414 15.1138C14.0778 15.0535 14.0886 14.8588 14.297 14.2525C14.379 14.0145 14.5658 13.6132 14.891 13.2301C14.9286 13.3875 14.9518 13.5385 14.951 13.6794C14.9466 14.6181 14.4446 14.9687 14.1414 15.1138Z" fill="white"/>
</svg>
