<svg width="20" height="20" viewBox="0 0 20 20" fill="none" xmlns="http://www.w3.org/2000/svg">
<path d="M10 0C7.33333 0 5.66667 2.22207 5 6.6662C6 4.44414 7.16667 3.61129 8.5 4.16629C9.26083 4.48303 9.80458 5.4034 10.4067 6.4217C11.3867 8.07974 12.5213 9.99965 15 9.99965C17.6667 9.99965 19.3333 7.77759 20 3.33275C19 5.55482 17.8333 6.38836 16.5 5.83336C15.7396 5.51662 15.1958 4.59626 14.5938 3.57795C13.6133 1.91922 12.4783 0 10 0ZM5 9.99965C2.33333 9.99965 0.666667 12.2217 0 16.6665C1 14.4445 2.16667 13.6109 3.5 14.1666C4.26042 14.4841 4.80417 15.4037 5.40625 16.4214C6.38667 18.0801 7.52167 20 10 20C12.6667 20 14.3333 17.7779 15 13.3331C14 15.5552 12.8333 16.3887 11.5 15.833C10.7392 15.5163 10.1954 14.5959 9.59333 13.5783C8.61333 11.9196 7.47875 9.99965 5 9.99965Z" fill="white"/>
</svg>
