<svg width="20" height="20" viewBox="0 0 20 20" fill="none" xmlns="http://www.w3.org/2000/svg">
<path d="M18.8889 0H1.11111C0.497222 0 0 0.497222 0 1.11111V18.8889C0 19.5028 0.497222 20 1.11111 20H18.8889C19.5028 20 20 19.5028 20 18.8889V1.11111C20 0.497222 19.5028 0 18.8889 0Z" fill="white"/>
<path opacity="0.05" d="M18.2328 13.67C17.7806 13.0783 17.1778 12.735 16.5933 12.4528C16.4161 12.3672 16.2383 12.2833 16.0606 12.1994C15.6911 12.0256 15.3089 11.8456 14.9483 11.6533C14.6789 11.5094 14.7361 11.3706 14.7667 11.2956C14.7956 11.225 14.9133 11.1755 15.0533 11.1755C15.095 11.1755 15.1378 11.18 15.18 11.1878C15.3378 11.2172 15.6333 11.4694 15.7878 11.7061L15.9389 11.9372L16.0894 12.1683L16.3217 12.0189L16.5539 11.8694C16.5994 11.84 17.6789 11.1461 18.0867 10.8506L18.2556 10.7283L18.4244 10.6061L18.3544 10.41L18.2844 10.2139C18.2572 10.1372 17.5822 8.33611 14.8283 8.33611H14.825C13.93 8.35944 13.1739 8.67111 12.5661 9.26333C12.4383 9.38833 12.325 9.52777 12.2233 9.67722V8.88888V8.61111V8.33333H11.9456H11.6667H4.44444H4.16666H3.88889V8.61111V8.88888V10.5744V10.8522V11.13H4.16666H4.44444H6.65111V18.3178V18.5955V18.8733H6.92889H7.20666H8.86944H9.14611H9.42277L9.42389 18.5967L9.425 18.32L9.45222 11.13H11.6667H11.7078C11.695 11.2622 11.6867 11.3961 11.6894 11.5317C11.7067 12.4056 12.0583 13.2144 12.6544 13.7505C13.0578 14.1133 13.5239 14.3694 13.975 14.6172L14.0939 14.6828C14.3944 14.8489 14.7028 14.9944 15.0006 15.1355C15.2372 15.2478 15.4678 15.3567 15.6933 15.475C15.7772 15.5189 15.8106 15.5767 15.8072 15.6739C15.8033 15.805 15.7522 15.8767 15.6261 15.93C15.4328 16.0117 15.2444 16.0528 15.0656 16.0528C14.7967 16.0528 14.5356 15.9578 14.2883 15.77C14.1561 15.6694 14.0267 15.5172 13.8889 15.3555C13.8106 15.2639 13.7311 15.1711 13.6467 15.0794L13.495 14.9161L13.3433 14.7528L13.1511 14.865L12.9589 14.9772C12.4761 15.2589 11.3789 15.9194 11.3789 15.9194L11.1444 16.0606L10.91 16.2017L11.0478 16.4383L11.1856 16.675C11.5817 17.3544 12.1361 17.9455 12.6694 18.2572C13.4089 18.6894 14.2167 18.9083 15.0706 18.9083C15.5356 18.9083 16.0233 18.8428 16.5206 18.7139C17.5939 18.4356 18.3717 17.7411 18.7106 16.7583C19.0672 15.7283 18.8794 14.5156 18.2328 13.67Z" fill="black"/>
<path opacity="0.05" d="M14.8278 8.61389H14.8244H14.8206C14.0089 8.635 13.3156 8.92056 12.7594 9.46223C12.2406 9.96834 11.9517 10.72 11.9678 11.5261C11.9839 12.3239 12.3017 13.0594 12.8406 13.5444C13.22 13.8856 13.6722 14.1344 14.1095 14.3744L14.2283 14.44C14.5217 14.6017 14.8256 14.7461 15.12 14.8856C15.3561 14.9972 15.5922 15.1089 15.8228 15.23C16.0011 15.3233 16.0922 15.4806 16.0856 15.6839C16.0778 15.9228 15.96 16.0922 15.735 16.1872C15.5072 16.2833 15.2828 16.3317 15.0667 16.3317C14.7361 16.3317 14.4178 16.2172 14.1211 15.9922C13.965 15.8739 13.8256 15.71 13.6783 15.5367C13.6028 15.4483 13.5261 15.3578 13.4439 15.2694L13.2922 15.1061L13.1 15.2183C12.6183 15.4994 11.5233 16.1589 11.5233 16.1589L11.2889 16.3L11.4267 16.5367C11.7995 17.1767 12.3167 17.7306 12.8106 18.0189C13.5072 18.4256 14.2678 18.6322 15.0717 18.6322C15.5133 18.6322 15.9772 18.57 16.4517 18.4467C17.4317 18.1922 18.1411 17.5611 18.4489 16.6694C18.775 15.7239 18.6039 14.6133 18.0122 13.8394C17.5956 13.2939 17.0261 12.9711 16.4728 12.7033C16.2967 12.6183 16.1195 12.5344 15.9422 12.4511C15.5695 12.2756 15.1839 12.0939 14.8172 11.8983C14.5006 11.7294 14.3911 11.4783 14.5089 11.1906C14.5828 11.01 14.7911 10.8978 15.0528 10.8978C15.1111 10.8978 15.1711 10.9033 15.2311 10.915C15.4928 10.9639 15.8444 11.2856 16.02 11.555L16.1706 11.7861L16.4028 11.6367C16.4483 11.6072 17.5245 10.915 17.9233 10.6267L18.0922 10.5044L18.0222 10.3083C17.9978 10.2383 17.3883 8.61389 14.8278 8.61389Z" fill="black"/>
<path opacity="0.05" d="M11.9444 8.61111H11.6667H4.44445H4.16667V8.88889V10.5744V10.8522H4.44445H6.92889V18.3178V18.5956H7.20667H8.86945H9.14612L9.14723 18.3189L9.17556 10.8522H11.6667H11.9444V10.5744V8.88889V8.61111Z" fill="black"/>
<path d="M13.24 15.4578C13.49 15.7272 13.6894 16.0122 13.9533 16.2128C14.5261 16.6483 15.1739 16.7244 15.8428 16.4422C16.1644 16.3067 16.3522 16.0444 16.3633 15.6922C16.3733 15.3811 16.2233 15.1261 15.9517 14.9833C15.4283 14.7089 14.8794 14.4817 14.3622 14.1961C13.8989 13.9406 13.415 13.6872 13.0261 13.3372C11.9956 12.4094 11.9978 10.5917 12.9528 9.66111C13.4722 9.155 14.0994 8.91055 14.8272 8.89166C17.2217 8.89166 17.76 10.4006 17.76 10.4006C17.3628 10.6878 16.2522 11.4022 16.2522 11.4022C16.0533 11.0972 15.6467 10.71 15.2817 10.6411C14.8228 10.555 14.3967 10.7294 14.2511 11.0844C14.0833 11.4939 14.2289 11.8989 14.6856 12.1428C15.2294 12.4328 15.795 12.6833 16.3506 12.9522C16.895 13.2156 17.4161 13.5178 17.7906 14.0072C18.7372 15.2456 18.5489 17.615 16.3811 18.1772C15.1961 18.4844 14.0378 18.4144 12.9494 17.7783C12.4367 17.4789 11.9589 16.9 11.6656 16.3961C11.6667 16.3961 12.7594 15.7383 13.24 15.4578Z" fill="#4276B4"/>
<path d="M4.44444 8.88889V10.5744H7.20667V18.3178H8.86944L8.89889 10.5744H11.6667V8.88889H4.44444Z" fill="#4276B4"/>
</svg>
